<?xml version="1.0" encoding="utf-8"?>
<!-- Generator: Adobe Illustrator 25.2.3, SVG Export Plug-In . SVG Version: 6.00 Build 0)  -->
<svg version="1.1" xmlns="http://www.w3.org/2000/svg" xmlns:xlink="http://www.w3.org/1999/xlink" x="0px" y="0px"
	 viewBox="0 0 484.541 340.393" enable-background="new 0 0 484.541 340.393" xml:space="preserve">
<g id="Logo">
	<g>
		<g>
			<path fill="#0044B4" d="M317.627,78.948l-1.486,1.423c-23.168,22.177-51.349,36.874-83.761,43.684l-0.006,0.001
				c-40.167,8.403-73.316,28.478-98.556,59.657l32.949,19.023c24.192-28.691,57.4-48.251,98.224-57.48
				c33.642-7.593,62.347-23.521,85.511-47.329L317.627,78.948z"/>
		</g>
		<g>
			<path fill="#0044B4" d="M279.283,56.811c0,0-18.621,23.961-81.714,38.416c-68.983,15.805-99.975,63.934-101.72,66.566
				l31.703,18.304c21.246-26.564,54.232-52.752,103.358-63.03c35.662-7.493,61.676-24.039,80.275-41.838L279.283,56.811z"/>
		</g>
		<path fill="#0044B4" d="M207.229,56.811c-11.678,5.386-25.368,8.749-38.646,11.338c-54.537,10.65-88.228,41.04-106.902,64.66
			c-1.725,2.169-3.31,4.318-4.87,6.446l32.814,18.945l0.338-0.448c5.861-8.89,38.516-54.02,106.013-69.484
			c17.498-4.009,31.427-8.769,42.375-13.489L207.229,56.811z"/>
		<path fill="#0044B4" d="M356.88,101.611l-1.163,1.197c-24.186,24.895-54.182,41.52-89.156,49.414
			c-26.822,6.063-50.127,16.663-69.66,31.603l32.702,18.88c16.843-12.589,38.266-23.376,65.422-29.275
			c38.026-8.333,69.772-26.168,94.432-53.01L356.88,101.611z"/>
		<path fill="#0044B4" d="M395.793,124.077l-1.078,1.173c-25.68,27.951-58.706,46.508-98.161,55.154
			c-2.76,0.6-5.484,1.264-8.175,1.981l35.249,20.351v0.017c19.08-4.001,69.871-18.036,104.103-60.237L395.793,124.077z"/>
	</g>
	<g>
		<path fill="#0044B4" d="M74.414,226.77h24.265c7.725,0,13.319,4.782,13.319,11.588c0,3.433-1.656,6.778-4.353,8.494v0.123
			c3.679,1.779,5.977,5.548,5.977,9.963c0,8.89-5.594,13.406-16.936,13.406h-22.18L74.414,226.77z M96.716,243.848
			c2.882,0,4.429-1.689,4.429-4.202c0-2.391-1.547-3.679-4.429-3.679H85.143v7.881H96.716z M97.789,261.147
			c3.434,0,5.042-1.573,5.042-4.576c0-2.759-1.884-4.384-5.134-4.384H85.143l0.092,8.96H97.789z"/>
		<path fill="#0044B4" d="M117.911,226.77h10.607v43.574h-10.607V226.77z"/>
		<path fill="#0044B4" d="M133.422,237.849h10.607v16.554c0,4.966,2.207,7.357,7.112,7.357c4.598,0,7.664-2.943,7.664-7.357v-16.554
			h10.607v32.495h-10.3v-3.127h-0.123c-2.575,2.697-6.131,4.046-10.668,4.046c-4.598,0-8.216-1.287-10.913-3.924
			c-2.636-2.636-3.985-6.193-3.985-10.668V237.849z"/>
		<path fill="#0044B4" d="M191.849,236.684c10.607,0,18.271,7.603,18.271,17.473v3.127h-26.18c0.307,3.679,3.434,5.886,8.584,5.886
			c3.372,0,6.622-1.533,9.81-4.537l5.886,6.745c-4.476,4.169-9.442,6.131-16.063,6.131c-11.343,0-18.7-6.866-18.7-17.351
			C173.271,244.409,181.487,236.5,191.849,236.684z M199.819,250.294c-0.429-3.494-3.372-5.579-7.848-5.579
			c-4.353,0-7.541,2.207-7.971,5.579H199.819z"/>
		<path fill="#0044B4" d="M222.541,254.271c1.27,5.889,4.776,8.393,11.365,8.393c5.018,0,7.98-1.472,7.98-4.082
			c0-2.55-2.236-3.793-12.453-6.1c-10.821-2.428-15.657-6.285-15.657-12.842c0-7.528,7.133-12.87,17.713-12.87
			c10.096,0,17.834,5.099,19.768,12.931l-10.156,2.246c-1.451-4.31-4.655-6.392-9.612-6.392c-4.171,0-6.952,1.535-6.952,3.903
			c0.242,2.125,1.753,2.769,11.788,5.136c11.063,2.61,16.322,6.641,16.322,13.745c0,8.014-7.436,13.173-18.801,13.173
			c-12.151,0-20.01-5.646-21.521-15.42L222.541,254.271z"/>
		<path fill="#0044B4" d="M273.72,236.684c8.461,0,15.573,4.782,17.412,11.649l-9.871,3.004c-0.981-3.373-3.679-5.395-7.541-5.395
			c-4.66,0-7.909,3.249-7.909,8.154c0,4.843,3.249,8.155,7.909,8.155c3.863,0,6.499-1.962,7.541-5.395l9.871,3.004
			c-1.839,6.866-8.951,11.648-17.412,11.648c-10.484,0-18.516-7.48-18.516-17.412C255.205,244.164,263.236,236.684,273.72,236.684z"
			/>
		<path fill="#0044B4" d="M312.529,236.684c10.729-0.184,19.068,7.542,18.884,17.412c0.184,9.871-8.154,17.597-18.884,17.412
			c-10.73,0.184-19.068-7.541-18.884-17.412C293.461,244.225,301.799,236.5,312.529,236.684z M312.529,245.942
			c-4.966,0-8.277,3.311-8.277,8.154c0,4.721,3.311,8.155,8.277,8.155c4.966,0,8.277-3.434,8.277-8.155
			S317.495,245.942,312.529,245.942z"/>
		<path fill="#0044B4" d="M355.295,237.113c-4.107,0-7.418,1.226-9.994,3.678h-0.122v-2.943h-10.055v45.732h10.607v-15.506h0.122
			c2.392,1.963,5.948,3.188,9.626,3.188c9.626,0,16.799-7.357,16.799-17.106C372.402,244.776,364.799,236.929,355.295,237.113z
			 M353.579,262.066c-4.721,0-8.093-3.31-8.093-8.032c0-4.475,3.25-7.664,8.093-7.664c4.845,0,8.094,3.189,8.094,7.664
			C361.673,258.756,358.299,262.066,353.579,262.066z"/>
		<path fill="#0044B4" d="M393.49,236.684c10.607,0,18.271,7.603,18.271,17.473v3.127h-26.18c0.307,3.679,3.434,5.886,8.584,5.886
			c3.372,0,6.622-1.533,9.81-4.537l5.886,6.745c-4.476,4.169-9.442,6.131-16.064,6.131c-11.343,0-18.7-6.866-18.7-17.351
			C374.913,244.409,383.129,236.5,393.49,236.684z M401.461,250.294c-0.429-3.494-3.372-5.579-7.848-5.579
			c-4.353,0-7.541,2.207-7.971,5.579H401.461z"/>
	</g>
</g>
<g id="Guides">
</g>
</svg>
