<svg xmlns="http://www.w3.org/2000/svg" xmlns:xlink="http://www.w3.org/1999/xlink" width="2000" zoomAndPan="magnify" viewBox="0 0 1500 841.49997" height="1122" preserveAspectRatio="xMidYMid meet" version="1.0"><defs><clipPath id="4aa7281aac"><path d="M 0.445312 0 L 1499.554688 0 L 1499.554688 841 L 0.445312 841 Z M 0.445312 0 " clip-rule="nonzero"/></clipPath></defs><g clip-path="url(#4aa7281aac)"><path fill="#ffffff" d="M 0.445312 0 L 1499.554688 0 L 1499.554688 841 L 0.445312 841 Z M 0.445312 0 " fill-opacity="1" fill-rule="nonzero"/><path fill="#ffffff" d="M 0.445312 0 L 1499.554688 0 L 1499.554688 841 L 0.445312 841 Z M 0.445312 0 " fill-opacity="1" fill-rule="nonzero"/></g><path fill="#0044b4" d="M 988.460938 131.875 L 983.761719 136.371094 C 910.484375 206.5 821.347656 252.972656 718.828125 274.507812 L 718.808594 274.511719 C 591.761719 301.082031 486.914062 364.558594 407.078125 463.152344 L 511.296875 523.304688 C 587.8125 432.582031 692.851562 370.730469 821.976562 341.546875 C 928.386719 317.535156 1019.179688 267.171875 1092.445312 191.886719 Z M 988.460938 131.875 " fill-opacity="1" fill-rule="nonzero"/><path fill="#0044b4" d="M 867.179688 61.875 C 867.179688 61.875 808.285156 137.640625 608.722656 183.347656 C 390.53125 233.328125 292.503906 385.515625 286.984375 393.839844 L 387.257812 451.71875 C 454.460938 367.71875 558.792969 284.910156 714.179688 252.410156 C 826.976562 228.714844 909.257812 176.394531 968.085938 120.113281 Z M 867.179688 61.875 " fill-opacity="1" fill-rule="nonzero"/><path fill="#0044b4" d="M 639.277344 61.875 C 602.339844 78.90625 559.039062 89.539062 517.039062 97.726562 C 344.539062 131.402344 237.976562 227.5 178.910156 302.1875 C 173.453125 309.046875 168.441406 315.839844 163.507812 322.570312 L 267.296875 382.476562 L 268.367188 381.058594 C 286.902344 352.949219 390.191406 210.242188 603.683594 161.34375 C 659.027344 148.667969 703.085938 133.617188 737.714844 118.691406 Z M 639.277344 61.875 " fill-opacity="1" fill-rule="nonzero"/><path fill="#0044b4" d="M 1112.621094 203.535156 L 1108.941406 207.320312 C 1032.441406 286.042969 937.5625 338.613281 826.941406 363.574219 C 742.105469 382.746094 668.390625 416.265625 606.609375 463.507812 L 710.042969 523.207031 C 763.320312 483.398438 831.078125 449.289062 916.972656 430.636719 C 1037.25 404.285156 1137.660156 347.890625 1215.660156 263.011719 Z M 1112.621094 203.535156 " fill-opacity="1" fill-rule="nonzero"/><path fill="#0044b4" d="M 1235.699219 274.578125 L 1232.289062 278.285156 C 1151.066406 366.667969 1046.605469 425.347656 921.808594 452.6875 C 913.078125 454.585938 904.464844 456.683594 895.953125 458.953125 L 1007.445312 523.304688 L 1007.445312 523.359375 C 1067.792969 510.707031 1228.445312 466.328125 1336.71875 332.882812 Z M 1235.699219 274.578125 " fill-opacity="1" fill-rule="nonzero"/><path fill="#0044b4" d="M 219.183594 599.304688 L 295.933594 599.304688 C 320.367188 599.304688 338.0625 614.425781 338.0625 635.945312 C 338.0625 646.800781 332.824219 657.378906 324.292969 662.804688 L 324.292969 663.191406 C 335.929688 668.820312 343.199219 680.738281 343.199219 694.699219 C 343.199219 722.808594 325.503906 737.089844 289.628906 737.089844 L 219.476562 737.089844 Z M 289.726562 653.304688 C 298.839844 653.304688 303.734375 647.964844 303.734375 640.019531 C 303.734375 632.457031 298.839844 628.386719 289.726562 628.386719 L 253.121094 628.386719 L 253.121094 653.304688 Z M 293.121094 708.007812 C 303.980469 708.007812 309.066406 703.03125 309.066406 693.535156 C 309.066406 684.8125 303.109375 679.675781 292.828125 679.675781 L 253.121094 679.675781 L 253.410156 708.007812 Z M 293.121094 708.007812 " fill-opacity="1" fill-rule="nonzero"/><path fill="#0044b4" d="M 356.765625 599.304688 L 390.316406 599.304688 L 390.316406 737.089844 L 356.765625 737.089844 Z M 356.765625 599.304688 " fill-opacity="1" fill-rule="nonzero"/><path fill="#0044b4" d="M 405.824219 634.335938 L 439.375 634.335938 L 439.375 686.679688 C 439.375 702.382812 446.355469 709.945312 461.871094 709.945312 C 476.414062 709.945312 486.113281 700.640625 486.113281 686.679688 L 486.113281 634.335938 L 519.660156 634.335938 L 519.660156 737.089844 L 487.082031 737.089844 L 487.082031 727.199219 L 486.695312 727.199219 C 478.550781 735.730469 467.300781 739.996094 452.949219 739.996094 C 438.40625 739.996094 426.964844 735.925781 418.433594 727.585938 C 410.097656 719.25 405.828125 708.003906 405.828125 693.851562 L 405.828125 634.335938 Z M 405.824219 634.335938 " fill-opacity="1" fill-rule="nonzero"/><path fill="#0044b4" d="M 590.628906 630.652344 C 624.179688 630.652344 648.421875 654.695312 648.421875 685.902344 L 648.421875 695.792969 L 565.613281 695.792969 C 566.585938 707.425781 576.476562 714.402344 592.765625 714.402344 C 603.429688 714.402344 613.710938 709.554688 623.792969 700.058594 L 642.410156 721.386719 C 628.253906 734.570312 612.546875 740.773438 591.605469 740.773438 C 555.726562 740.773438 532.457031 719.0625 532.457031 685.90625 C 531.867188 655.078125 557.855469 630.070312 590.628906 630.652344 Z M 615.839844 673.6875 C 614.480469 662.640625 605.171875 656.046875 591.015625 656.046875 C 577.246094 656.046875 567.164062 663.027344 565.804688 673.6875 Z M 615.839844 673.6875 " fill-opacity="1" fill-rule="nonzero"/><path fill="#0044b4" d="M 687.707031 686.265625 C 691.722656 704.886719 702.8125 712.804688 723.65625 712.804688 C 739.527344 712.804688 748.894531 708.148438 748.894531 699.894531 C 748.894531 691.832031 741.824219 687.902344 709.507812 680.605469 C 675.28125 672.929688 659.984375 660.734375 659.984375 640 C 659.984375 616.195312 682.546875 599.304688 716.011719 599.304688 C 747.945312 599.304688 772.417969 615.425781 778.535156 640.191406 L 746.414062 647.292969 C 741.824219 633.664062 731.6875 627.082031 716.011719 627.082031 C 702.816406 627.082031 694.019531 631.9375 694.019531 639.421875 C 694.785156 646.144531 699.566406 648.179688 731.304688 655.664062 C 766.296875 663.917969 782.933594 676.664062 782.933594 699.128906 C 782.933594 724.46875 759.414062 740.78125 723.464844 740.78125 C 685.03125 740.78125 660.175781 722.929688 655.394531 692.023438 Z M 687.707031 686.265625 " fill-opacity="1" fill-rule="nonzero"/><path fill="#0044b4" d="M 849.585938 630.652344 C 876.347656 630.652344 898.84375 645.773438 904.660156 667.488281 L 873.4375 676.988281 C 870.335938 666.320312 861.800781 659.925781 849.585938 659.925781 C 834.847656 659.925781 824.570312 670.199219 824.570312 685.710938 C 824.570312 701.023438 834.847656 711.496094 849.585938 711.496094 C 861.804688 711.496094 870.140625 705.292969 873.4375 694.4375 L 904.660156 703.9375 C 898.84375 725.648438 876.347656 740.769531 849.585938 740.769531 C 816.425781 740.769531 791.019531 717.117188 791.019531 685.710938 C 791.023438 654.304688 816.425781 630.652344 849.585938 630.652344 Z M 849.585938 630.652344 " fill-opacity="1" fill-rule="nonzero"/><path fill="#0044b4" d="M 972.339844 630.652344 C 1006.273438 630.070312 1032.648438 654.5 1032.066406 685.710938 C 1032.648438 716.925781 1006.277344 741.355469 972.339844 740.769531 C 938.398438 741.351562 912.027344 716.925781 912.609375 685.710938 C 912.027344 654.496094 938.398438 630.070312 972.339844 630.652344 Z M 972.339844 659.925781 C 956.628906 659.925781 946.15625 670.398438 946.15625 685.710938 C 946.15625 700.640625 956.628906 711.496094 972.339844 711.496094 C 988.046875 711.496094 998.519531 700.640625 998.519531 685.710938 C 998.519531 670.78125 988.046875 659.925781 972.339844 659.925781 Z M 972.339844 659.925781 " fill-opacity="1" fill-rule="nonzero"/><path fill="#0044b4" d="M 1107.605469 632.007812 C 1094.617188 632.007812 1084.144531 635.886719 1075.996094 643.640625 L 1075.609375 643.640625 L 1075.609375 634.332031 L 1043.804688 634.332031 L 1043.804688 778.941406 L 1077.355469 778.941406 L 1077.355469 729.910156 L 1077.742188 729.910156 C 1085.308594 736.117188 1096.554688 739.992188 1108.1875 739.992188 C 1138.636719 739.992188 1161.324219 716.726562 1161.324219 685.902344 C 1161.714844 656.238281 1137.667969 631.425781 1107.605469 632.007812 Z M 1102.179688 710.914062 C 1087.246094 710.914062 1076.582031 700.445312 1076.582031 685.515625 C 1076.582031 671.363281 1086.859375 661.28125 1102.179688 661.28125 C 1117.503906 661.28125 1127.78125 671.363281 1127.78125 685.515625 C 1127.78125 700.445312 1117.109375 710.914062 1102.179688 710.914062 Z M 1102.179688 710.914062 " fill-opacity="1" fill-rule="nonzero"/><path fill="#0044b4" d="M 1228.414062 630.652344 C 1261.964844 630.652344 1286.207031 654.695312 1286.207031 685.902344 L 1286.207031 695.792969 L 1203.398438 695.792969 C 1204.371094 707.425781 1214.261719 714.402344 1230.550781 714.402344 C 1241.214844 714.402344 1251.496094 709.554688 1261.578125 700.058594 L 1280.195312 721.386719 C 1266.039062 734.570312 1250.332031 740.773438 1229.386719 740.773438 C 1193.507812 740.773438 1170.238281 719.0625 1170.238281 685.90625 C 1169.65625 655.078125 1195.644531 630.070312 1228.414062 630.652344 Z M 1253.628906 673.6875 C 1252.269531 662.640625 1242.960938 656.046875 1228.804688 656.046875 C 1215.035156 656.046875 1204.953125 663.027344 1203.59375 673.6875 Z M 1253.628906 673.6875 " fill-opacity="1" fill-rule="nonzero"/></svg>